<svg xmlns="http://www.w3.org/2000/svg" viewBox="0 0 600 340" fill="none">
  <!-- Background -->
  <rect width="600" height="340" fill="#FDF2F0"/>
  <!-- Soft background wash blobs -->
  <ellipse cx="150" cy="280" rx="140" ry="80" fill="#E8C4C0" opacity="0.25"/>
  <ellipse cx="480" cy="100" rx="100" ry="70" fill="#D4A5A0" opacity="0.2"/>
  <ellipse cx="400" cy="300" rx="120" ry="60" fill="#C89090" opacity="0.12"/>

  <!-- Cartoon Hayley - center-left -->
  <!-- Body/blazer -->
  <path d="M230 340 L230 240 Q230 220 250 215 L270 210 Q280 208 290 210 L310 215 Q330 220 330 240 L330 340" fill="#C4BFB8" opacity="0.85"/>
  <!-- White top -->
  <path d="M255 215 Q270 222 280 222 Q290 222 305 215 L300 240 Q280 245 260 240 Z" fill="white" opacity="0.9"/>
  <!-- Necklace -->
  <path d="M265 220 Q280 230 295 220" stroke="#A85C5C" stroke-width="1.2" fill="none" opacity="0.6"/>
  <circle cx="280" cy="228" r="3" fill="#A85C5C" opacity="0.6"/>

  <!-- Head -->
  <ellipse cx="280" cy="170" rx="38" ry="44" fill="#F0C9A8"/>
  <!-- Hair - long black straight -->
  <path d="M242 155 Q240 120 255 110 Q270 100 280 98 Q290 100 305 110 Q320 120 318 155 L320 210 Q315 220 310 225 L310 200 Q308 175 305 165 L300 155 Q295 145 280 143 Q265 145 260 155 L255 165 Q252 175 250 200 L250 225 Q245 220 240 210 Z" fill="#1A1A1A"/>
  <!-- Hair sides flowing down -->
  <path d="M242 160 L238 220 Q236 240 240 260 Q242 265 245 260 L248 220 Q250 190 250 170 Z" fill="#2D2D2D"/>
  <path d="M318 160 L322 220 Q324 240 320 260 Q318 265 315 260 L312 220 Q310 190 310 170 Z" fill="#2D2D2D"/>

  <!-- Face features -->
  <!-- Eyes -->
  <ellipse cx="268" cy="168" rx="5" ry="4.5" fill="#2D2D2D"/>
  <ellipse cx="292" cy="168" rx="5" ry="4.5" fill="#2D2D2D"/>
  <ellipse cx="269" cy="167" rx="2" ry="2" fill="white" opacity="0.6"/>
  <ellipse cx="293" cy="167" rx="2" ry="2" fill="white" opacity="0.6"/>
  <!-- Eyebrows -->
  <path d="M261 160 Q268 157 275 159" stroke="#2D2D2D" stroke-width="1.5" fill="none" stroke-linecap="round"/>
  <path d="M285 159 Q292 157 299 160" stroke="#2D2D2D" stroke-width="1.5" fill="none" stroke-linecap="round"/>
  <!-- Nose -->
  <path d="M278 174 Q280 178 282 174" stroke="#D4A088" stroke-width="1.2" fill="none" stroke-linecap="round"/>
  <!-- Big warm smile -->
  <path d="M265 185 Q280 196 295 185" stroke="#C4756A" stroke-width="2" fill="none" stroke-linecap="round"/>
  <path d="M268 186 Q280 194 292 186" fill="#E88080" opacity="0.3"/>
  <!-- Blush -->
  <ellipse cx="260" cy="180" rx="7" ry="4" fill="#E8A0A0" opacity="0.25"/>
  <ellipse cx="300" cy="180" rx="7" ry="4" fill="#E8A0A0" opacity="0.25"/>

  <!-- Earrings - geometric tassel style like in photo -->
  <path d="M244 170 L240 178 L244 186 L248 178 Z" fill="#A0B5A8" opacity="0.7"/>
  <path d="M316 170 L312 178 L316 186 L320 178 Z" fill="#A0B5A8" opacity="0.7"/>

  <!-- Raised hand/gesture -->
  <path d="M335 220 Q345 200 350 190 Q352 185 355 188 Q353 195 348 208 L340 230 Z" fill="#F0C9A8"/>

  <!-- Floating elements around her - representing AI/code/learning -->
  <!-- Terminal icon -->
  <rect x="380" y="120" width="80" height="55" rx="5" fill="#2D2D2D" opacity="0.75"/>
  <rect x="380" y="120" width="80" height="12" rx="5" fill="#3D3D3D" opacity="0.8"/>
  <circle cx="389" cy="126" r="2.5" fill="#E85C5C" opacity="0.7"/>
  <circle cx="396" cy="126" r="2.5" fill="#E8C44D" opacity="0.7"/>
  <circle cx="403" cy="126" r="2.5" fill="#5CE85C" opacity="0.7"/>
  <rect x="390" y="138" width="30" height="2.5" rx="1" fill="#C17A7A" opacity="0.6"/>
  <rect x="390" y="146" width="50" height="2.5" rx="1" fill="#D4A5A0" opacity="0.5"/>
  <rect x="395" y="154" width="40" height="2.5" rx="1" fill="#E8C4C0" opacity="0.5"/>
  <rect x="390" y="162" width="35" height="2.5" rx="1" fill="#D4A5A0" opacity="0.5"/>

  <!-- People dots representing 700+ community -->
  <circle cx="420" cy="220" r="8" fill="#C89090" opacity="0.5"/>
  <circle cx="440" cy="230" r="7" fill="#B56B6B" opacity="0.4"/>
  <circle cx="460" cy="218" r="8" fill="#D4A5A0" opacity="0.5"/>
  <circle cx="480" cy="228" r="7" fill="#C17A7A" opacity="0.4"/>
  <circle cx="500" cy="215" r="6" fill="#C89090" opacity="0.45"/>
  <circle cx="435" cy="250" r="6" fill="#E8C4C0" opacity="0.5"/>
  <circle cx="455" cy="255" r="7" fill="#B56B6B" opacity="0.35"/>
  <circle cx="475" cy="248" r="6" fill="#D4A5A0" opacity="0.4"/>
  <circle cx="495" cy="252" r="7" fill="#C89090" opacity="0.4"/>
  <circle cx="515" cy="240" r="5" fill="#C17A7A" opacity="0.35"/>
  <circle cx="420" cy="270" r="5" fill="#D4A5A0" opacity="0.3"/>
  <circle cx="445" cy="275" r="6" fill="#C89090" opacity="0.35"/>
  <circle cx="470" cy="272" r="5" fill="#B56B6B" opacity="0.3"/>

  <!-- Connection lines from Hayley to elements -->
  <path d="M350 190 Q370 160 380 140" stroke="#C17A7A" stroke-width="1.5" opacity="0.3" fill="none" stroke-dasharray="3 3"/>
  <path d="M340 230 Q380 230 420 225" stroke="#C17A7A" stroke-width="1.5" opacity="0.3" fill="none" stroke-dasharray="3 3"/>

  <!-- Sparkle accents -->
  <path d="M140 80 L143 73 L146 80 L143 87Z" fill="#D4A5A0" opacity="0.5"/>
  <path d="M500 80 L502 75 L504 80 L502 85Z" fill="#C89090" opacity="0.4"/>
  <path d="M100 200 L102 196 L104 200 L102 204Z" fill="#B56B6B" opacity="0.4"/>
  <path d="M550 170 L552 166 L554 170 L552 174Z" fill="#E8C4C0" opacity="0.5"/>

  <!-- Abstract lightbulb/idea near her head -->
  <circle cx="350" cy="130" r="14" fill="#F5E6A0" opacity="0.4"/>
  <circle cx="350" cy="130" r="9" fill="#F5E6A0" opacity="0.3"/>
  <path d="M346 140 L354 140 L352 145 L348 145 Z" fill="#E8D080" opacity="0.3"/>

  <!-- "700+" text accent -->
  <text x="440" y="300" font-family="Georgia, serif" font-size="22" fill="#A85C5C" opacity="0.2" font-weight="bold">700+</text>

  <!-- Soft watercolor-style edge texture -->
  <ellipse cx="50" cy="50" rx="40" ry="30" fill="#E8C4C0" opacity="0.15"/>
  <ellipse cx="560" cy="310" rx="35" ry="25" fill="#D4A5A0" opacity="0.15"/>
</svg>
